<svg xmlns="http://www.w3.org/2000/svg" width="58" height="60" viewBox="0 0 58 60">
    <g fill="none" fill-rule="evenodd">
        <path stroke="#006196" stroke-width="2" d="M56.914 27.702l-.012-.176C55.87 12.626 43.72 1.35 29.102 1.35c-1.543 0-3.145.141-4.739.422C10.403 4.16.328 17.032 1.301 31.318a27.872 27.872 0 0 0 9.337 19.156l.613.544-.413.708c-1.582 2.71-2.749 4.19-4.974 6.213-.299.258-.1.786.286.786h.433c4.041 0 8.67-1.077 11.679-2.907l.418-.254.457.174c3.277 1.245 6.614 1.897 9.965 1.897 1.616 0 3.293-.142 4.935-.418 13.842-2.664 23.756-15.443 22.877-29.515z"/>
        <path fill="#006196" d="M39.928 20.19H18.275a1.452 1.452 0 0 0 0 2.904h21.653a1.452 1.452 0 0 0 0-2.905zM39.928 28.91H18.275a1.452 1.452 0 0 0 0 2.905h21.653a1.452 1.452 0 0 0 0-2.905zM39.928 36.903H18.275a1.452 1.452 0 0 0 0 2.906h21.653a1.452 1.452 0 0 0 0-2.906z"/>
    </g>
</svg>
