<svg xmlns="http://www.w3.org/2000/svg" width="62" height="62" viewBox="0 0 62 62">
    <g fill="none" fill-rule="evenodd">
        <path stroke="#006196" stroke-width="2" d="M21.751 45.155c-.3 0-.589-.121-.803-.332l-3.77-3.774a1.134 1.134 0 0 1 0-1.604l4.74-4.745c.233-.233.553-.341.881-.329.329.022.63.186.828.447a18.171 18.171 0 0 0 3.554 3.556 1.136 1.136 0 0 1 .118 1.707l-4.742 4.745a1.17 1.17 0 0 1-.806.329zM2.824 59.176a6.248 6.248 0 0 1 0-8.823l10.59-10.592c.212-.213.5-.33.8-.33.3 0 .587.12.8.33l7.224 7.226a1.129 1.129 0 0 1 0 1.598l-10.59 10.592A6.229 6.229 0 0 1 7.234 61a6.219 6.219 0 0 1-4.41-1.824z"/>
        <path stroke="#006196" stroke-width="2" d="M39.892 42.79c-5.353 0-10.706-2.033-14.784-6.105v-.003c-8.144-8.155-8.144-21.415 0-29.558A20.774 20.774 0 0 1 39.892 1a20.73 20.73 0 0 1 14.774 6.127 20.742 20.742 0 0 1 6.125 14.774 20.764 20.764 0 0 1-6.128 14.784c-4.068 4.072-9.419 6.106-14.771 6.106z"/>
        <path fill="#006196" d="M28.23 12.459c-.283 0-.563-.111-.78-.33a1.142 1.142 0 0 1 0-1.592c3.04-3.107 7.084-4.819 11.38-4.819.61 0 1.104.505 1.104 1.127s-.495 1.127-1.103 1.127c-3.71 0-7.196 1.478-9.823 4.16a1.085 1.085 0 0 1-.777.327zM40.248 29.927c-7.817 0-13.97-7.054-14.226-7.356a1.122 1.122 0 0 1 0-1.465c.259-.302 6.408-7.356 14.226-7.356 7.806 0 13.955 7.054 14.214 7.356a1.122 1.122 0 0 1 0 1.465c-.256.299-6.408 7.356-14.214 7.356zm-11.822-8.092c1.724 1.715 6.43 5.838 11.822 5.838 5.399 0 10.09-4.123 11.81-5.838-1.724-1.715-6.427-5.838-11.81-5.838-5.407 0-10.1 4.123-11.822 5.838z"/>
        <path fill="#006196" d="M39.544 25.589a4.049 4.049 0 0 1-4.044-4.045 4.049 4.049 0 0 1 4.044-4.044 4.049 4.049 0 0 1 4.045 4.044 4.049 4.049 0 0 1-4.045 4.045zm0-5.921c-1.033 0-1.873.84-1.873 1.873 0 1.034.84 1.874 1.873 1.874 1.034 0 1.874-.84 1.874-1.874 0-1.033-.84-1.873-1.874-1.873z"/>
    </g>
</svg>
