<svg xmlns="http://www.w3.org/2000/svg" width="68" height="60" viewBox="0 0 68 60">
    <g fill="none" fill-rule="evenodd">
        <path fill="#006196" d="M54.369 58.435H19.194a1.022 1.022 0 0 1-1.023-1.02V30.488l-.742.724c-.283.275-.7.364-1.074.224-1.543-.576-8.266-7.354-10.288-9.418a1.02 1.02 0 0 1-.207-1.12c1.039-2.393 8.726-11.544 10.258-13.356C20.228 2.681 28.997.79 29.368.711c.278-.06.566 0 .8.164 1.424.998 3.897 1.596 6.616 1.596 2.718 0 5.192-.598 6.616-1.596.231-.164.522-.22.8-.164.37.078 9.14 1.97 13.25 6.831 2.15 2.544 9.246 11.022 10.258 13.356a1.02 1.02 0 0 1-.207 1.12c-2.025 2.064-8.745 8.842-10.29 9.418-.372.14-.79.051-1.075-.224l-.743-.724v26.927c-.002.563-.46-2.98-1.025-2.98v4zm-34.151-2.04h33.128v-28.33c0-.411.245-.78.624-.939.38-.159.816-.075 1.112.21l1.908 1.857c1.46-1.114 5.152-4.656 8.522-8.072-1.303-2.145-5.604-7.505-9.628-12.263C52.692 5.08 45.9 3.22 44.178 2.8c-1.793 1.09-4.452 1.71-7.396 1.71-2.945 0-5.604-.62-7.397-1.71-1.725.423-8.513 2.283-11.705 6.057-4.024 4.758-8.323 10.118-9.628 12.263 3.367 3.413 7.054 6.947 8.521 8.07l1.906-1.858a1.023 1.023 0 0 1 1.736.73l.003 28.332z"/>
        <path fill="#006196" d="M36.782 10.61c-2.872 0-5.058-.848-6.498-2.525-2.282-2.659-1.741-6.373-1.717-6.532a1.021 1.021 0 0 1 1.599-.678c1.424.998 3.897 1.596 6.616 1.596 2.718 0 5.192-.598 6.616-1.597a1.022 1.022 0 0 1 1.599.679c.024.159.568 3.873-1.718 6.532-1.44 1.675-3.625 2.525-6.497 2.525zm-6.213-7.208c.084 1.01.383 2.33 1.276 3.364 1.034 1.195 2.695 1.801 4.937 1.801 2.242 0 3.903-.606 4.936-1.8.894-1.034 1.193-2.356 1.276-3.365-1.69.713-3.862 1.109-6.212 1.109-2.353 0-4.522-.393-6.212-1.11zM56.848 31.503c-.264 0-.52-.1-.714-.29l-2.479-2.415a1.018 1.018 0 0 1-.306-.73l-.003-15.64c0-.175.035-4.261 3.012-5.2.393-.124.823 0 1.09.314 2.15 2.544 9.243 11.022 10.258 13.356a1.02 1.02 0 0 1-.207 1.12c-2.024 2.064-8.745 8.842-10.29 9.418a.995.995 0 0 1-.361.067zm-1.456-3.868l1.598 1.556c1.467-1.123 5.158-4.66 8.525-8.07-1.247-2.05-5.23-7.038-9.092-11.63-.98.874-1.031 2.91-1.031 2.934v15.21zM16.716 31.503c-.121 0-.243-.022-.358-.065-1.545-.578-8.269-7.356-10.29-9.42a1.02 1.02 0 0 1-.208-1.12C6.9 18.505 14.586 9.353 16.118 7.542a1.023 1.023 0 0 1 1.088-.315c2.976.94 3.011 5.025 3.011 5.2v15.638c0 .275-.11.539-.31.73l-2.478 2.414a1.018 1.018 0 0 1-.713.294zM8.052 21.122c3.367 3.413 7.054 6.947 8.521 8.07l1.599-1.557V12.428c0-.022-.043-2.062-1.028-2.937-3.863 4.595-7.847 9.582-9.092 11.631z"/>
        <path fill="#FFF" d="M10.047 57.018a.912.912 0 0 0-.125-.014c-4.4-.26-7.848-3.96-7.848-8.426 0-2.282.888-4.42 2.498-6.02l.007-.007 7.676-7.767a1.143 1.143 0 0 1 1.637 0c.225.228.338.528.338.829 0 .299-.113.6-.338.828l-2.963 2.998a1.072 1.072 0 0 0-.228 1.16c.163.398.546.658.972.658h14.765c.639 0 1.158.526 1.158 1.171 0 .646-.52 1.172-1.158 1.172h-9.945c-.582 0-1.052.478-1.052 1.065a1.06 1.06 0 0 0 1.052 1.065l4.42-.001c.638 0 1.158.526 1.158 1.172 0 .645-.52 1.171-1.158 1.171h-4.421c-.582 0-1.053.478-1.053 1.065a1.06 1.06 0 0 0 1.053 1.065h2.21c.638 0 1.158.526 1.158 1.172 0 .646-.52 1.172-1.158 1.172h-3.315c-.582 0-1.052.477-1.052 1.065 0 .589.472 1.065 1.052 1.065h1.105c.638 0 1.158.526 1.158 1.172 0 .645-.52 1.171-1.158 1.171l-6.445-.002z"/>
        <path fill="#006196" d="M19.917 56.013c0 1.82-1.463 3.3-3.262 3.3l-6.627-.001c-.09 0-.175-.01-.257-.031-5.42-.42-9.637-5.013-9.637-10.538a10.55 10.55 0 0 1 3.124-7.537l7.671-7.763a3.223 3.223 0 0 1 2.307-.966c.87 0 1.689.342 2.306.966a3.333 3.333 0 0 1 0 4.669l-1.167 1.18h12.226c1.799 0 3.263 1.482 3.263 3.302S28.4 45.896 26.6 45.896l-2.479.001c.138.365.213.76.213 1.172a3.3 3.3 0 0 1-2.461 3.2c.163.392.252.822.252 1.272a3.3 3.3 0 0 1-2.461 3.2c.163.393.252.822.252 1.272zm-9.707 1.17a.912.912 0 0 0-.126-.014c-4.4-.26-7.847-3.96-7.847-8.425 0-2.282.887-4.42 2.498-6.02l.007-.007 7.675-7.767a1.143 1.143 0 0 1 1.637 0c.226.228.338.527.338.828 0 .3-.112.6-.338.829l-2.963 2.998a1.072 1.072 0 0 0-.228 1.16c.164.398.547.657.972.657h14.766c.638 0 1.158.526 1.158 1.172 0 .646-.52 1.172-1.158 1.172h-9.946c-.582 0-1.052.477-1.052 1.065a1.06 1.06 0 0 0 1.052 1.065l4.42-.002c.638 0 1.158.526 1.158 1.172 0 .646-.52 1.172-1.158 1.172h-4.421c-.582 0-1.053.478-1.053 1.065a1.06 1.06 0 0 0 1.053 1.065h2.21c.639 0 1.159.526 1.159 1.172 0 .645-.52 1.171-1.159 1.171H15.55c-.582 0-1.052.478-1.052 1.065 0 .59.472 1.065 1.052 1.065h1.105c.638 0 1.158.526 1.158 1.172 0 .646-.52 1.172-1.158 1.172l-6.444-.003v.002z"/>
    </g>
</svg>
